<?xml version="1.0" encoding="iso-8859-1"?>
<!-- Generator: Adobe Illustrator 19.0.0, SVG Export Plug-In . SVG Version: 6.00 Build 0)  -->
<svg version="1.1" id="Layer_1" xmlns="http://www.w3.org/2000/svg" xmlns:xlink="http://www.w3.org/1999/xlink" x="0px" y="0px"
	 viewBox="0 0 512 512" style="enable-background:new 0 0 512 512;" xml:space="preserve">
<path style="fill:#E4EAF8;" d="M256,503.983c90.882-25.653,156.977-94.063,173.501-128.267
	c29.167-60.376,45.305-218.782,48.829-256.778c-32.456-21.452-58.031-53.028-72.584-90.45C364.405,15.679,312.479,8.017,256,8.017
	s-108.405,7.662-149.746,20.471C91.7,65.91,66.126,97.486,33.67,118.938c3.524,37.996,19.662,196.402,48.829,256.778
	C99.023,409.921,165.118,478.33,256,503.983z"/>
<g>
	<path style="fill:#D5DCED;" d="M106.254,28.488C91.7,65.91,66.126,97.486,33.67,118.938
		c3.524,37.996,19.662,196.402,48.829,256.778C99.023,409.921,165.118,478.33,256,503.983V8.017
		C199.521,8.017,147.596,15.679,106.254,28.488z"/>
	<path style="fill:#D5DCED;" d="M441.301,122.923C421,105.205,404.344,83.974,391.799,59.82l-5.413-10.423l-11.428-2.713
		C339.098,38.17,297.963,33.67,256,33.67c-41.962,0-83.096,4.5-118.958,13.013l-11.428,2.713l-5.413,10.423
		C107.656,83.974,91,105.205,70.699,122.923l-10.065,8.783l1.425,13.282c4.19,39.038,19.71,170.243,43.539,219.569
		c12.159,25.167,66.26,83.219,141.887,109.829l8.515,2.996l8.515-2.996c75.628-26.61,129.729-84.663,141.887-109.829
		c23.829-49.326,39.349-180.532,43.539-219.569l1.425-13.282L441.301,122.923z"/>
</g>
<path style="fill:#AFB9D2;" d="M137.042,46.683l-11.428,2.713l-5.413,10.423C107.656,83.974,91,105.205,70.699,122.923
	l-10.065,8.783l1.425,13.282c4.19,39.038,19.71,170.243,43.539,219.569c12.159,25.167,66.26,83.219,141.887,109.829l8.515,2.996
	V33.67C214.038,33.67,172.904,38.17,137.042,46.683z"/>
<path style="fill:#00C3FF;" d="M256,59.324c40.065,0,79.354,4.324,113.034,12.319c14.006,26.967,32.731,50.824,55.401,70.608
	c-9.078,84.583-24.406,176.525-41.131,211.147c-9.47,19.605-58.421,72.553-127.303,96.789
	c-68.882-24.236-117.832-77.185-127.302-96.788c-16.726-34.623-32.054-126.564-41.132-211.147
	c22.67-19.784,41.395-43.64,55.401-70.608C176.646,63.647,215.935,59.324,256,59.324"/>
<path style="fill:#00AAF0;" d="M142.966,71.643c-14.006,26.967-32.731,50.824-55.401,70.608
	c9.078,84.584,24.406,176.525,41.132,211.148c9.47,19.604,58.42,72.552,127.302,96.788V59.324
	C215.935,59.324,176.646,63.647,142.966,71.643z"/>
<path d="M482.751,112.251c-31.548-20.852-55.593-50.822-69.534-86.668c-0.886-2.278-2.763-4.029-5.1-4.751
	C364.137,7.203,311.535,0,256,0S147.863,7.203,103.883,20.831c-2.336,0.724-4.213,2.473-5.1,4.751
	c-13.941,35.847-37.985,65.816-69.534,86.669c-2.466,1.63-3.834,4.485-3.562,7.428c4.224,45.542,20.283,198.855,49.592,259.525
	c18.521,38.336,88.073,106.958,178.542,132.495C254.535,511.9,255.267,512,256,512s1.465-0.1,2.178-0.301
	c90.47-25.537,160.022-94.159,178.542-132.495c29.309-60.67,45.368-213.982,49.592-259.525
	C486.585,116.735,485.216,113.881,482.751,112.251z M422.282,372.228c-6.99,14.469-25.564,39.045-56.735,64.632
	c-23.26,19.093-61.025,44.651-109.548,58.784c-48.523-14.132-86.289-39.69-109.548-58.784
	c-31.171-25.587-49.745-50.163-56.735-64.632c-27.649-57.233-43.712-208.603-47.62-249.322
	c31.307-21.805,55.452-52.039,70.172-87.868C153.99,22.6,203.587,16.033,256,16.033S358.01,22.6,399.731,35.039
	c14.72,35.829,38.865,66.062,70.172,87.868C465.995,163.625,449.932,314.995,422.282,372.228z"/>
<path d="M429.705,136.211c-10.592-9.243-20.394-19.517-29.138-30.535c-2.752-3.469-7.794-4.049-11.263-1.297
	c-3.469,2.752-4.049,7.794-1.297,11.263c8.476,10.684,17.886,20.713,28.011,29.86c-12.646,115.863-28.876,181.518-39.935,204.41
	c-8.024,16.61-50.848,63.673-112.067,88.639V179.044c0-4.428-3.589-8.017-8.017-8.017c-4.427,0-8.017,3.588-8.017,8.017v259.505
	c-61.22-24.966-104.044-72.03-112.067-88.638c-1.5-3.105-3.042-6.839-4.586-11.098c-1.508-4.164-6.103-6.316-10.267-4.809
	c-4.163,1.508-6.316,6.104-4.808,10.267c1.728,4.774,3.486,9.017,5.223,12.614c10.709,22.168,61.946,76.264,131.86,100.864
	c0.862,0.302,1.76,0.454,2.66,0.454s1.8-0.152,2.66-0.454c69.914-24.6,121.152-78.697,131.861-100.864
	c17.954-37.167,33.408-134.801,41.884-213.779C432.684,140.505,431.677,137.931,429.705,136.211z"/>
<path d="M121.65,305.409c-9.509-39.279-18.827-97.368-25.668-159.909c21.157-19.1,38.747-41.566,52.362-66.875
	c30.233-6.867,64.446-10.712,99.64-11.221v26.122c0,4.427,3.589,8.017,8.017,8.017c4.427,0,8.017-3.589,8.017-8.017V67.403
	c35.194,0.509,69.408,4.355,99.64,11.221c1.913,3.554,3.919,7.077,5.984,10.51c2.281,3.794,7.208,5.02,11.001,2.737
	s5.02-7.209,2.737-11.001c-2.529-4.205-4.962-8.552-7.231-12.922c-1.074-2.068-2.995-3.567-5.263-4.105
	C336.338,55.642,296.612,51.307,256,51.307c-40.61,0-80.338,4.335-114.886,12.537c-2.267,0.538-4.188,2.036-5.262,4.105
	c-13.566,26.122-31.586,49.089-53.557,68.263c-1.971,1.72-2.979,4.295-2.7,6.895c6.949,64.759,16.598,125.291,26.471,166.075
	c0.888,3.67,4.17,6.132,7.786,6.132c0.624,0,1.259-0.073,1.893-0.227C120.047,314.045,122.691,309.712,121.65,305.409z"/>
<path d="M256,119.714c-4.427,0-8.017,3.588-8.017,8.017v17.109c0,4.427,3.589,8.017,8.017,8.017c4.427,0,8.017-3.589,8.017-8.017
	v-17.109C264.017,123.302,260.427,119.714,256,119.714z"/>
<g>
</g>
<g>
</g>
<g>
</g>
<g>
</g>
<g>
</g>
<g>
</g>
<g>
</g>
<g>
</g>
<g>
</g>
<g>
</g>
<g>
</g>
<g>
</g>
<g>
</g>
<g>
</g>
<g>
</g>
</svg>
